<svg width="20" height="20" viewBox="0 0 20 20" fill="none" xmlns="http://www.w3.org/2000/svg">
<path d="M10.0141 0C8.7027 0 7.40417 0.258658 6.19262 0.761205C4.98108 1.26375 3.88024 2.00035 2.95296 2.92893C1.08023 4.8043 0.0281467 7.34784 0.0281467 10C0.0194168 12.3091 0.817826 14.5485 2.28497 16.33L0.287781 18.33C0.149218 18.4706 0.0553545 18.6492 0.0180329 18.8432C-0.0192886 19.0372 0.00160464 19.2379 0.0780763 19.42C0.161017 19.5999 0.295474 19.7511 0.464379 19.8544C0.633283 19.9577 0.829019 20.0083 1.02674 20H10.0141C12.6625 20 15.2025 18.9464 17.0752 17.0711C18.9479 15.1957 20 12.6522 20 10C20 7.34784 18.9479 4.8043 17.0752 2.92893C15.2025 1.05357 12.6625 0 10.0141 0ZM10.0141 18H3.43335L4.36204 17.07C4.54803 16.8826 4.65242 16.6292 4.65242 16.365C4.65242 16.1008 4.54803 15.8474 4.36204 15.66C3.05447 14.352 2.2402 12.6305 2.05798 10.7888C1.87575 8.94705 2.33684 7.09901 3.36267 5.55952C4.38851 4.02004 5.91564 2.88436 7.68387 2.34597C9.4521 1.80759 11.352 1.8998 13.06 2.60691C14.7679 3.31402 16.1782 4.59227 17.0506 6.22389C17.923 7.85551 18.2034 9.73954 17.8442 11.555C17.4849 13.3705 16.5082 15.005 15.0805 16.1802C13.6527 17.3554 11.8622 17.9985 10.0141 18ZM12.0113 9H11.0127V8C11.0127 7.73478 10.9075 7.48043 10.7202 7.29289C10.5329 7.10536 10.2789 7 10.0141 7C9.74923 7 9.49523 7.10536 9.30796 7.29289C9.12069 7.48043 9.01548 7.73478 9.01548 8V9H8.01689C7.75204 9 7.49805 9.10536 7.31078 9.29289C7.1235 9.48043 7.01829 9.73478 7.01829 10C7.01829 10.2652 7.1235 10.5196 7.31078 10.7071C7.49805 10.8946 7.75204 11 8.01689 11H9.01548V12C9.01548 12.2652 9.12069 12.5196 9.30796 12.7071C9.49523 12.8946 9.74923 13 10.0141 13C10.2789 13 10.5329 12.8946 10.7202 12.7071C10.9075 12.5196 11.0127 12.2652 11.0127 12V11H12.0113C12.2761 11 12.5301 10.8946 12.7174 10.7071C12.9046 10.5196 13.0099 10.2652 13.0099 10C13.0099 9.73478 12.9046 9.48043 12.7174 9.29289C12.5301 9.10536 12.2761 9 12.0113 9Z" fill="#14C280"/>
</svg>
