<svg width="31" height="32" viewBox="0 0 31 32" fill="none" xmlns="http://www.w3.org/2000/svg">
<path d="M15.5218 0C13.4892 0 11.4765 0.413834 9.59857 1.21787C7.72067 2.02191 6.01437 3.20041 4.57708 4.68608C1.67436 7.68653 0.0436274 11.756 0.0436274 15.9993C0.0300961 19.6937 1.26763 23.2766 3.5417 26.1268L0.44606 29.3267C0.231289 29.5517 0.0857994 29.8374 0.0279511 30.1478C-0.0298973 30.4581 0.00248718 30.7793 0.121018 31.0706C0.249577 31.3585 0.457985 31.6004 0.719787 31.7656C0.981589 31.9308 1.28498 32.0119 1.59145 31.9986H15.5218C19.6269 31.9986 23.5638 30.313 26.4665 27.3125C29.3693 24.312 31 20.2426 31 15.9993C31 11.756 29.3693 7.68653 26.4665 4.68608C23.5638 1.68563 19.6269 0 15.5218 0ZM15.5218 28.7987H5.32169L6.76116 27.3108C7.04944 27.011 7.21125 26.6055 7.21125 26.1828C7.21125 25.7602 7.04944 25.3547 6.76116 25.0549C4.73442 22.9622 3.47232 20.208 3.18986 17.2613C2.90741 14.3146 3.62209 11.3579 5.21214 8.89484C6.8022 6.43178 9.16924 4.61477 11.91 3.75339C14.6508 2.89201 17.5957 3.03955 20.243 4.17088C22.8903 5.3022 25.0763 7.34731 26.4284 9.95779C27.7806 12.5683 28.2153 15.5826 27.6585 18.4872C27.1016 21.3918 25.5878 24.007 23.3747 25.8872C21.1617 27.7675 18.3865 28.7964 15.5218 28.7987Z" fill="#3FDE3E"/>
</svg>
