<svg width="31" height="32" viewBox="0 0 31 32" fill="none" xmlns="http://www.w3.org/2000/svg">
<path d="M15.4782 0C17.5108 0 19.5235 0.413834 21.4014 1.21787C23.2793 2.02191 24.9856 3.20041 26.4229 4.68608C29.3256 7.68653 30.9564 11.756 30.9564 15.9993C30.9699 19.6937 29.7324 23.2766 27.4583 26.1268L30.5539 29.3267C30.7687 29.5517 30.9142 29.8374 30.972 30.1478C31.0299 30.4581 30.9975 30.7793 30.879 31.0706C30.7504 31.3585 30.542 31.6004 30.2802 31.7656C30.0184 31.9308 29.715 32.0119 29.4086 31.9986H15.4782C11.3731 31.9986 7.43618 30.313 4.53346 27.3125C1.63073 24.312 1.90735e-06 20.2426 1.90735e-06 15.9993C1.90735e-06 11.756 1.63073 7.68653 4.53346 4.68608C7.43618 1.68563 11.3731 0 15.4782 0ZM15.4782 28.7987H25.6783L24.2388 27.3108C23.9506 27.011 23.7887 26.6055 23.7887 26.1828C23.7887 25.7602 23.9506 25.3547 24.2388 25.0549C26.2656 22.9622 27.5277 20.208 27.8101 17.2613C28.0926 14.3146 27.3779 11.3579 25.7879 8.89484C24.1978 6.43178 21.8308 4.61477 19.09 3.75339C16.3492 2.89201 13.4043 3.03955 10.757 4.17088C8.10968 5.3022 5.92373 7.34731 4.57158 9.95779C3.21943 12.5683 2.78473 15.5826 3.34155 18.4872C3.89836 21.3918 5.41225 24.007 7.62527 25.8872C9.83829 27.7675 12.6135 28.7964 15.4782 28.7987Z" fill="#3FDE3E"/>
</svg>
