<svg xmlns="http://www.w3.org/2000/svg" viewBox="649 105 71.92 25.036">
  <defs>
    <style>
      .cls-1 {
        fill: #c0b283;
      }

      .cls-2 {
        fill: #393630;
      }
    </style>
  </defs>
  <g id="Group_620" data-name="Group 620" transform="translate(533 96)">
    <g id="Asset_1" data-name="Asset 1" transform="translate(116 9)">
      <g id="_1" data-name="1">
        <path id="Path_1" data-name="Path 1" class="cls-1" d="M69,23.93V9.13a.87.87,0,0,1,.42-.75,1.84,1.84,0,0,1,1-.28,1.89,1.89,0,0,1,1.07.28.88.88,0,0,1,.43.75v14.8a.93.93,0,0,1-.45.73,1.67,1.67,0,0,1-1.05.34,1.71,1.71,0,0,1-1-.32.92.92,0,0,1-.42-.75Z"/>
        <path id="Path_2" data-name="Path 2" class="cls-2" d="M1,24.22V8.88c0-.48.29-.71.86-.71a.94.94,0,0,1,.6.19.63.63,0,0,1,.25.52v1.78A5.16,5.16,0,0,1,4.55,8.74,5.3,5.3,0,0,1,7.47,8,6.07,6.07,0,0,1,12,9.88a6.34,6.34,0,0,1,1.89,4.6v9.74q0,.78-.9.78c-.57,0-.85-.26-.85-.78V14.48a4.8,4.8,0,0,0-1.43-3.39,4.5,4.5,0,0,0-6.56-.16,4.69,4.69,0,0,0-1.39,3.55v9.74a.72.72,0,0,1-.27.53.88.88,0,0,1-.62.25.89.89,0,0,1-.61-.23A.73.73,0,0,1,1,24.22Z"/>
        <path id="Path_3" data-name="Path 3" class="cls-2" d="M18.31,19.9V.75a.67.67,0,0,1,.27-.54,1,1,0,0,1,1.21,0,.67.67,0,0,1,.27.54V8.17H24.8a.62.62,0,0,1,.49.23.82.82,0,0,1,.19.55.77.77,0,0,1-.21.52.64.64,0,0,1-.47.23H20.06V19.9a3.57,3.57,0,0,0,.82,2.67,4.06,4.06,0,0,0,2.85.79h.9a.8.8,0,0,1,.58.23.79.79,0,0,1,.24.59.81.81,0,0,1-.24.57.74.74,0,0,1-.58.25h-.9Q18.32,25,18.31,19.9Z"/>
        <path id="Path_4" data-name="Path 4" class="cls-2" d="M27.51,18.4V14.16a6.14,6.14,0,0,1,1.93-4.53,6.57,6.57,0,0,1,9.18,0,6.17,6.17,0,0,1,1.91,4.6,4.47,4.47,0,0,1-.23,1.56,1.47,1.47,0,0,1-.73.83,2.92,2.92,0,0,1-.9.31,11.17,11.17,0,0,1-1.16.05H29.26v1.5A4.47,4.47,0,0,0,30.87,22,6.21,6.21,0,0,0,35,23.4a5.85,5.85,0,0,0,2.18-.4,6.31,6.31,0,0,0,1.35-.71,1.36,1.36,0,0,1,.71-.36.71.71,0,0,1,.56.28.89.89,0,0,1,.24.57c0,.46-.49.93-1.47,1.43a8,8,0,0,1-3.64.75,7.83,7.83,0,0,1-5.35-1.82,6,6,0,0,1-2.07-4.74Zm1.75-2.92h7.6a3.44,3.44,0,0,0,1.6-.25,1.16,1.16,0,0,0,.4-1,4.9,4.9,0,0,0-1.36-3.38,4.4,4.4,0,0,0-3.42-1.5,4.67,4.67,0,0,0-3.41,1.39A4.5,4.5,0,0,0,29.26,14Z"/>
        <path id="Path_5" data-name="Path 5" class="cls-2" d="M44.53,24.16V.75a.68.68,0,0,1,.25-.54.88.88,0,0,1,.6-.21A1,1,0,0,1,46,.21a.68.68,0,0,1,.25.54V24.16a.75.75,0,0,1-.26.53.88.88,0,0,1-.63.25.85.85,0,0,1-.6-.23A.73.73,0,0,1,44.53,24.16Z"/>
        <path id="Path_6" data-name="Path 6" class="cls-1" d="M50.87,18.15V8.88a.92.92,0,0,1,.45-.75,1.79,1.79,0,0,1,1-.32,1.63,1.63,0,0,1,1,.34.94.94,0,0,1,.44.73v9.25A4.09,4.09,0,0,0,55.05,21a3.88,3.88,0,0,0,5.74,0A4.07,4.07,0,0,0,62,18.13V8.84a.88.88,0,0,1,.45-.71,1.74,1.74,0,0,1,1-.32,1.72,1.72,0,0,1,1,.3.91.91,0,0,1,.41.73v9.31A6.5,6.5,0,0,1,62.87,23,7,7,0,0,1,53,23a6.54,6.54,0,0,1-2.13-4.85Z"/>
        <path id="Path_7" data-name="Path 7" class="cls-2" d="M.55,2.87A1.57,1.57,0,0,1,.53.5,1.89,1.89,0,0,1,1.85,0,1.85,1.85,0,0,1,3.14.5a1.57,1.57,0,0,1,.53,1.18,1.62,1.62,0,0,1-.53,1.19,1.78,1.78,0,0,1-1.29.52,1.84,1.84,0,0,1-1.3-.52Z"/>
      </g>
    </g>
  </g>
</svg>
