<svg width="21" height="21" viewBox="0 0 21 21" fill="none" xmlns="http://www.w3.org/2000/svg">
<path d="M16.8 13.65V3.15C16.8 2.31457 16.4681 1.51335 15.8774 0.922614C15.2866 0.331874 14.4854 0 13.65 0H3.15C2.31457 0 1.51335 0.331874 0.922614 0.922614C0.331874 1.51335 0 2.31457 0 3.15V13.65C0 14.4854 0.331874 15.2866 0.922614 15.8774C1.51335 16.4681 2.31457 16.8 3.15 16.8H13.65C14.4854 16.8 15.2866 16.4681 15.8774 15.8774C16.4681 15.2866 16.8 14.4854 16.8 13.65ZM2.1 13.65V3.15C2.1 2.87152 2.21062 2.60445 2.40754 2.40754C2.60445 2.21062 2.87152 2.1 3.15 2.1H13.65C13.9285 2.1 14.1955 2.21062 14.3925 2.40754C14.5894 2.60445 14.7 2.87152 14.7 3.15V13.65C14.7 13.9285 14.5894 14.1955 14.3925 14.3925C14.1955 14.5894 13.9285 14.7 13.65 14.7H3.15C2.87152 14.7 2.60445 14.5894 2.40754 14.3925C2.21062 14.1955 2.1 13.9285 2.1 13.65ZM19.95 4.2C19.6715 4.2 19.4044 4.31062 19.2075 4.50754C19.0106 4.70445 18.9 4.97152 18.9 5.25V15.75C18.9 16.5854 18.5681 17.3866 17.9774 17.9774C17.3866 18.5681 16.5854 18.9 15.75 18.9H5.25C4.97152 18.9 4.70445 19.0106 4.50754 19.2075C4.31062 19.4044 4.2 19.6715 4.2 19.95C4.2 20.2285 4.31062 20.4956 4.50754 20.6925C4.70445 20.8894 4.97152 21 5.25 21H15.75C17.1424 21 18.4777 20.4469 19.4623 19.4623C20.4469 18.4777 21 17.1424 21 15.75V5.25C21 4.97152 20.8894 4.70445 20.6925 4.50754C20.4956 4.31062 20.2285 4.2 19.95 4.2Z" fill="#C8C8C8"/>
</svg>
