<svg width="21" height="21" viewBox="0 0 21 21" fill="none" xmlns="http://www.w3.org/2000/svg">
<path d="M17.1929 3.05288C16.2704 2.09778 15.167 1.33596 13.9469 0.811868C12.7269 0.287778 11.4147 0.0119157 10.0869 0.000377568C8.7591 -0.0111606 7.44231 0.241856 6.21334 0.744665C4.98438 1.24747 3.86786 1.99001 2.92893 2.92893C1.99001 3.86786 1.24747 4.98438 0.744665 6.21334C0.241856 7.44231 -0.0111606 8.7591 0.000377568 10.0869C0.0119157 11.4147 0.287778 12.7269 0.811868 13.9469C1.33596 15.167 2.09778 16.2704 3.05288 17.1929C3.97535 18.148 5.0788 18.9098 6.29884 19.4339C7.51888 19.958 8.83108 20.2339 10.1589 20.2454C11.4867 20.2569 12.8035 20.0039 14.0324 19.5011C15.2614 18.9983 16.3779 18.2558 17.3168 17.3168C18.2558 16.3779 18.9983 15.2614 19.5011 14.0324C20.0039 12.8035 20.2569 11.4867 20.2454 10.1589C20.2339 8.83108 19.958 7.51888 19.4339 6.29884C18.9098 5.0788 18.148 3.97535 17.1929 3.05288ZM15.7829 15.7829C14.4749 17.0923 12.7534 17.9077 10.9117 18.0902C9.06993 18.2727 7.22189 17.8109 5.6824 16.7837C4.14292 15.7564 3.00724 14.2271 2.46886 12.4564C1.93047 10.6856 2.02269 8.78302 2.7298 7.07267C3.4369 5.36231 4.71516 3.95003 6.34677 3.07644C7.97839 2.20286 9.86242 1.92201 11.6779 2.28176C13.4934 2.6415 15.1279 3.61957 16.3031 5.04934C17.4783 6.47911 18.1214 8.27212 18.1229 10.1229C18.1265 11.1742 17.9215 12.2157 17.5198 13.1873C17.1182 14.1588 16.5278 15.041 15.7829 15.7829Z" fill="white"/>
<path d="M13.5074 6.19399C13.6293 6.24476 13.7399 6.31915 13.8329 6.41288C13.9266 6.50584 14.001 6.61644 14.0518 6.7383C14.1025 6.86016 14.1287 6.99087 14.1287 7.12288C14.1287 7.25489 14.1025 7.3856 14.0518 7.50746C14.001 7.62932 13.9266 7.73992 13.8329 7.83288L11.5329 10.1229L13.8329 12.4129C13.9266 12.5058 14.001 12.6164 14.0518 12.7383C14.1025 12.8602 14.1287 12.9909 14.1287 13.1229C14.1287 13.2549 14.1025 13.3856 14.0518 13.5075C14.001 13.6293 13.9266 13.7399 13.8329 13.8329C13.7399 13.9266 13.6293 14.001 13.5074 14.0518C13.3856 14.1025 13.2549 14.1287 13.1229 14.1287C12.9909 14.1287 12.8601 14.1025 12.7383 14.0518C12.6164 14.001 12.5058 13.9266 12.4129 13.8329L10.1229 11.5329L7.83286 13.8329C7.7399 13.9266 7.6293 14.001 7.50744 14.0518C7.38558 14.1025 7.25488 14.1287 7.12286 14.1287C6.99085 14.1287 6.86015 14.1025 6.73829 14.0518C6.61643 14.001 6.50583 13.9266 6.41286 13.8329C6.31914 13.7399 6.24474 13.6293 6.19397 13.5075C6.1432 13.3856 6.11707 13.2549 6.11707 13.1229C6.11707 12.9909 6.1432 12.8602 6.19397 12.7383C6.24474 12.6164 6.31914 12.5058 6.41286 12.4129L8.71286 10.1229L6.41286 7.83288C6.22456 7.64458 6.11877 7.38918 6.11877 7.12288C6.11877 6.85658 6.22456 6.60118 6.41286 6.41288C6.60117 6.22458 6.85656 6.11879 7.12286 6.11879C7.38917 6.11879 7.64456 6.22458 7.83286 6.41288L10.1229 8.71288L12.4129 6.41288C12.5058 6.31915 12.6164 6.24476 12.7383 6.19399C12.8601 6.14322 12.9909 6.11708 13.1229 6.11708C13.2549 6.11708 13.3856 6.14322 13.5074 6.19399Z" fill="white"/>
</svg>
