<svg width="38" height="38" viewBox="0 0 38 38" fill="none" xmlns="http://www.w3.org/2000/svg">
<path d="M26.0555 20.3477C27.9274 18.883 29.2938 16.8745 29.9645 14.6015C30.6351 12.3286 30.5768 9.90424 29.7975 7.66581C29.0182 5.42739 27.5567 3.48618 25.6165 2.11225C23.6762 0.738322 21.3535 0 18.9717 0C16.5898 0 14.2672 0.738322 12.3269 2.11225C10.3866 3.48618 8.92517 5.42739 8.14589 7.66581C7.36661 9.90424 7.30824 12.3286 7.97891 14.6015C8.64958 16.8745 10.0159 18.883 11.8879 20.3477C8.68026 21.6258 5.88151 23.7455 3.78998 26.481C1.69845 29.2165 0.392559 32.4652 0.0115171 35.8808C-0.0160647 36.1301 0.00601146 36.3825 0.0764846 36.6233C0.146958 36.8642 0.264448 37.0889 0.422247 37.2847C0.740937 37.68 1.20447 37.9331 1.71087 37.9885C2.21727 38.0439 2.72505 37.897 3.12252 37.5801C3.51999 37.2631 3.77458 36.8021 3.83028 36.2985C4.24955 32.5865 6.02929 29.1583 8.82946 26.6688C11.6296 24.1793 15.2539 22.8031 19.0099 22.8031C22.7658 22.8031 26.3901 24.1793 29.1903 26.6688C31.9904 29.1583 33.7702 32.5865 34.1895 36.2985C34.2414 36.7651 34.4652 37.196 34.8178 37.5081C35.1705 37.8202 35.6268 37.9914 36.0988 37.9885H36.3089C36.8094 37.9313 37.2669 37.6796 37.5816 37.2883C37.8963 36.8971 38.0428 36.3979 37.9891 35.8997C37.6063 32.4745 36.2934 29.2175 34.1911 26.4778C32.0888 23.7381 29.2764 21.619 26.0555 20.3477ZM18.9717 18.9995C17.4611 18.9995 15.9845 18.554 14.7285 17.7194C13.4725 16.8848 12.4936 15.6985 11.9155 14.3106C11.3375 12.9227 11.1862 11.3954 11.4809 9.92204C11.7756 8.44863 12.503 7.09522 13.5711 6.03295C14.6393 4.97069 16.0001 4.24727 17.4817 3.95419C18.9632 3.66112 20.4989 3.81153 21.8944 4.38643C23.29 4.96132 24.4828 5.93487 25.3221 7.18397C26.1613 8.43306 26.6092 9.9016 26.6092 11.4039C26.6092 13.4184 25.8045 15.3503 24.3722 16.7748C22.9399 18.1992 20.9973 18.9995 18.9717 18.9995Z" fill="#B1B9C3"/>
</svg>
